<svg width="739" height="476" viewBox="0 0 739 476" fill="none" xmlns="http://www.w3.org/2000/svg">
<rect width="739" height="476" fill="#F5F5F5"/>
<rect width="739" height="476" fill="#F1CCCC"/>
<ellipse cx="348" cy="115" rx="40" ry="31" fill="#AF6161"/>
<ellipse cx="348" cy="115" rx="40" ry="31" fill="#563333"/>
<ellipse cx="349.5" cy="120" rx="25.5" ry="26" fill="#F1CCCC"/>
<ellipse cx="352" cy="169" rx="36" ry="22" fill="#DE3737"/>
<ellipse cx="352" cy="232" rx="44" ry="52" fill="#C64F4F"/>
<path d="M352.5 223L401.43 337.75H303.57L352.5 223Z" fill="#BF5656"/>
<line x1="320.284" y1="160.412" x2="291.284" y2="180.412" stroke="black"/>
<line x1="315.627" y1="208.333" x2="290.627" y2="180.333" stroke="black"/>
<line x1="388.481" y1="168.865" x2="409.481" y2="243.865" stroke="black"/>
<path d="M329.5 102L330.735 106.491H334.731L331.498 109.267L332.733 113.759L329.5 110.983L326.267 113.759L327.502 109.267L324.269 106.491H328.265L329.5 102Z" fill="#FD9797"/>
<path d="M329.5 102L330.735 106.491H334.731L331.498 109.267L332.733 113.759L329.5 110.983L326.267 113.759L327.502 109.267L324.269 106.491H328.265L329.5 102Z" fill="#FD9797"/>
<path d="M325.5 114L326.735 118.491H330.731L327.498 121.267L328.733 125.759L325.5 122.983L322.267 125.759L323.502 121.267L320.269 118.491H324.265L325.5 114Z" fill="#FD9797"/>
<path d="M335.5 96L336.735 100.491H340.731L337.498 103.267L338.733 107.759L335.5 104.983L332.267 107.759L333.502 103.267L330.269 100.491H334.265L335.5 96Z" fill="#FD9797"/>
<rect y="333" width="739" height="143" fill="#574C4C"/>
</svg>
